<?xml version="1.0" encoding="UTF-8"?>
<svg version="1.1" xmlns="http://www.w3.org/2000/svg" width="454" height="192">

<path d="M0 0 C3.95125439 1.24968961 7.92494439 2.42558663 11.89892578 3.60058594 C11.89892578 4.26058594 11.89892578 4.92058594 11.89892578 5.60058594 C12.92759766 5.66375 13.95626953 5.72691406 15.01611328 5.79199219 C19.46096911 6.71763118 21.85323928 8.47195031 25.02392578 11.53808594 C25.5445459 12.02954102 26.06516602 12.52099609 26.6015625 13.02734375 C33.52188782 19.83629748 37.86037392 28.85945873 38.12939453 38.67871094 C38.1254734 40.06940417 38.11107049 41.46010556 38.08642578 42.85058594 C38.08545898 43.91019531 38.08545898 43.91019531 38.08447266 44.99121094 C38.05780358 48.12038302 37.89497403 50.61244119 36.89892578 53.60058594 C36.23892578 53.60058594 35.57892578 53.60058594 34.89892578 53.60058594 C34.81642578 54.30183594 34.73392578 55.00308594 34.64892578 55.72558594 C32.47394428 64.06301501 25.25414912 71.120585 18.12158203 75.55761719 C12.55365407 78.17033558 7.11729203 78.96155673 1.02392578 78.91308594 C0.3264624 78.91034668 -0.37100098 78.90760742 -1.08959961 78.90478516 C-6.68690175 78.79162952 -11.02706272 77.91504732 -16.10107422 75.60058594 C-16.43107422 74.94058594 -16.76107422 74.28058594 -17.10107422 73.60058594 C-17.76107422 73.60058594 -18.42107422 73.60058594 -19.10107422 73.60058594 C-19.43107422 83.17058594 -19.76107422 92.74058594 -20.10107422 102.60058594 C-20.76107422 102.60058594 -21.42107422 102.60058594 -22.10107422 102.60058594 C-22.18357422 103.19871094 -22.26607422 103.79683594 -22.35107422 104.41308594 C-23.35144419 107.33083168 -24.39916171 108.14009269 -27.10107422 109.60058594 C-31.10308074 110.29658707 -32.74398308 109.81043209 -36.26513672 107.74121094 C-38.31497923 105.95133295 -39.02301916 104.95335043 -39.61621094 102.27246094 C-39.76651086 99.44328589 -39.72183876 96.68100492 -39.60107422 93.85058594 C-39.59076172 92.89925781 -39.58044922 91.94792969 -39.56982422 90.96777344 C-39.43753205 84.93194311 -38.59272225 79.44688385 -37.10107422 73.60058594 C-37.76107422 73.60058594 -38.42107422 73.60058594 -39.10107422 73.60058594 C-39.10107422 59.41058594 -39.10107422 45.22058594 -39.10107422 30.60058594 C-38.44107422 30.60058594 -37.78107422 30.60058594 -37.10107422 30.60058594 C-37.10107422 29.61058594 -37.10107422 28.62058594 -37.10107422 27.60058594 C-38.09107422 27.60058594 -39.08107422 27.60058594 -40.10107422 27.60058594 C-40.58297071 24.15368743 -40.77023903 21.03071421 -40.10107422 17.60058594 C-37.84844754 15.08365106 -35.17355837 13.91953061 -32.10107422 12.60058594 C-31.27607422 12.23320313 -30.45107422 11.86582031 -29.60107422 11.48730469 C-28.03981461 10.79924957 -26.46866162 10.13297537 -24.88623047 9.49511719 C-22.91671501 8.73128407 -22.91671501 8.73128407 -22.10107422 6.60058594 C-24.66548369 7.70047954 -27.22756649 8.80532193 -29.78857422 9.91308594 C-30.87041992 10.37618164 -30.87041992 10.37618164 -31.97412109 10.84863281 C-35.8725123 12.53971576 -39.45691564 14.40327325 -43.10107422 16.60058594 C-43.76107422 16.60058594 -44.42107422 16.60058594 -45.10107422 16.60058594 C-44.95865774 18.95500309 -44.81222614 21.30906077 -44.66357422 23.66308594 C-44.58236328 24.9740625 -44.50115234 26.28503906 -44.41748047 27.63574219 C-44.20664228 30.27772693 -43.90153888 32.91386752 -43.50341797 35.53417969 C-43.37064453 36.54609375 -43.23787109 37.55800781 -43.10107422 38.60058594 C-44.10107422 39.60058594 -44.10107422 39.60058594 -46.66357422 39.66308594 C-47.46794922 39.64246094 -48.27232422 39.62183594 -49.10107422 39.60058594 C-49.02888672 38.77816406 -48.95669922 37.95574219 -48.88232422 37.10839844 C-48.31223013 30.25143346 -47.96129842 23.48066155 -48.10107422 16.60058594 C-50.41107422 15.94058594 -52.72107422 15.28058594 -55.10107422 14.60058594 C-53.97098738 11.21032541 -53.5861124 11.00493259 -50.63623047 9.33105469 C-49.56634888 8.71423828 -49.56634888 8.71423828 -48.47485352 8.08496094 C-47.33077026 7.44300781 -47.33077026 7.44300781 -46.16357422 6.78808594 C-44.60868338 5.89651338 -43.05399504 5.00458757 -41.49951172 4.11230469 C-40.74379883 3.68224121 -39.98808594 3.25217773 -39.20947266 2.80908203 C-35.79641041 0.85277609 -32.44144186 -1.19749111 -29.08154297 -3.24316406 C-28.42798828 -3.62472656 -27.77443359 -4.00628906 -27.10107422 -4.39941406 C-26.43205078 -4.79257812 -25.76302734 -5.18574219 -25.07373047 -5.59082031 C-18.40864332 -8.32284613 -6.7553715 -2.15502747 0 0 Z " fill="#F4F9F4" transform="translate(68.10107421875,51.3994140625)"/>
<path d="M0 0 C5.32833491 0.25594622 8.3215748 2.38031847 12.0625 5.9375 C12.58763184 6.42895508 13.11276367 6.92041016 13.65380859 7.42675781 C20.61948296 14.22030572 24.96077368 23.23425487 25.23046875 33.078125 C25.22654762 34.46881823 25.21214471 35.85951962 25.1875 37.25 C25.18685547 37.95640625 25.18621094 38.6628125 25.18554688 39.390625 C25.15887779 42.51979709 24.99604825 45.01185525 24 48 C23.34 48 22.68 48 22 48 C21.9175 48.70125 21.835 49.4025 21.75 50.125 C19.5750185 58.46242907 12.35522334 65.51999907 5.22265625 69.95703125 C-0.36729659 72.58008469 -5.82103735 73.35941438 -11.9375 73.3125 C-12.63681641 73.31121094 -13.33613281 73.30992187 -14.05664062 73.30859375 C-19.35574384 73.20982202 -23.29078066 72.35460967 -28 70 C-26.58996056 64.94735868 -24.80836403 60.73851107 -20.1953125 57.8828125 C-17.61757791 56.84621461 -15.52147457 56.72794048 -12.75 56.625 C-5.85002583 56.08220203 -0.67979678 54.22568605 3.9375 48.9375 C6.11368603 46.13617085 6.11368603 46.13617085 7 43 C7.66 43 8.32 43 9 43 C9.33 39.04 9.66 35.08 10 31 C9.34 31 8.68 31 8 31 C7.38125 29.1746875 7.38125 29.1746875 6.75 27.3125 C4.9726182 22.71078549 3.38697662 19.29641299 -1.12890625 16.84375 C-7.01478597 14.26464778 -12.60506891 13.27212473 -19 13 C-19 12.34 -19 11.68 -19 11 C-18.45996338 10.70230713 -17.91992676 10.40461426 -17.36352539 10.09790039 C-14.92887423 8.75452698 -12.4956726 7.40854945 -10.0625 6.0625 C-9.21236328 5.59392578 -8.36222656 5.12535156 -7.48632812 4.64257812 C-6.67744141 4.19462891 -5.86855469 3.74667969 -5.03515625 3.28515625 C-4.2862915 2.87144775 -3.53742676 2.45773926 -2.76586914 2.03149414 C-1.03748855 1.1221285 -1.03748855 1.1221285 0 0 Z " fill="#1157AF" transform="translate(81,57)"/>
<path d="M0 0 C0.52851562 0.32355469 1.05703125 0.64710937 1.6015625 0.98046875 C-1.20648018 3.9445138 -3.58159524 6.42545894 -7.3984375 7.98046875 C-7.8934375 7.48546875 -7.8934375 7.48546875 -8.3984375 6.98046875 C-11.35660857 6.73041489 -11.35660857 6.73041489 -14.3984375 6.98046875 C-16.78629026 8.92280964 -16.78629026 8.92280964 -16.5859375 12.48046875 C-16.63974987 15.83011578 -16.63974987 15.83011578 -15.3984375 17.98046875 C-14.1196875 18.04234375 -12.8409375 18.10421875 -11.5234375 18.16796875 C-10.80414063 18.20277344 -10.08484375 18.23757812 -9.34375 18.2734375 C-8.70179687 18.17675781 -8.05984375 18.08007812 -7.3984375 17.98046875 C-5.1934646 15.1574908 -5.1934646 15.1574908 -5.0234375 11.98046875 C-4.3984375 8.98046875 -4.3984375 8.98046875 -2.5234375 7.10546875 C-0.3984375 5.98046875 -0.3984375 5.98046875 2.6015625 5.98046875 C4.21071113 9.198766 4.06478096 12.49001981 3.6015625 15.98046875 C1.03074242 21.02323122 -2.90002781 25.59560558 -8.27148438 27.72192383 C-10.28353437 28.29411928 -12.30284581 28.80108401 -14.3359375 29.29296875 C-20.42878848 30.97394653 -24.3157839 32.72112066 -28.234375 37.91796875 C-30.8132797 42.48730326 -31.64893829 46.1630239 -31.70703125 51.41796875 C-31.73216797 52.64257812 -31.75730469 53.8671875 -31.78320312 55.12890625 C-31.81835868 57.69656408 -31.8496089 60.26427835 -31.87695312 62.83203125 C-31.90337891 64.05664062 -31.92980469 65.28125 -31.95703125 66.54296875 C-31.97048584 67.65800781 -31.98394043 68.77304688 -31.99780273 69.921875 C-32.44769131 73.35649053 -33.33635344 75.21929604 -35.3984375 77.98046875 C-38.93972934 80.34132997 -40.22593968 80.55316453 -44.3984375 79.98046875 C-47.20961567 78.36914153 -48.61147298 77.56373342 -50.3984375 74.98046875 C-51.13909958 71.18499705 -50.96549575 67.51652057 -50.7734375 63.66796875 C-50.74636719 62.64123047 -50.71929687 61.61449219 -50.69140625 60.55664062 C-50.62087004 58.02909299 -50.52237179 55.50586832 -50.3984375 52.98046875 C-49.7384375 52.98046875 -49.0784375 52.98046875 -48.3984375 52.98046875 C-48.30369141 52.14128906 -48.30369141 52.14128906 -48.20703125 51.28515625 C-46.33885128 39.05349369 -40.70826114 29.83612014 -32.18164062 21.25415039 C-28.50377774 17.43676019 -27.05026808 14.20776791 -25.921875 9.10546875 C-24.87553911 4.85765738 -22.35405225 2.69105408 -18.9609375 0.16796875 C-13.16379809 -1.76441105 -5.73987943 -2.43991618 0 0 Z " fill="#73BF45" transform="translate(79.3984375,81.01953125)"/>
<path d="M0 0 C27.50580046 0 27.50580046 0 32.9609375 4.68359375 C33.42757812 5.26238281 33.89421875 5.84117188 34.375 6.4375 C34.85710937 7.01371094 35.33921875 7.58992188 35.8359375 8.18359375 C38.67329559 12.61101492 38.47022213 17.91627775 38 23 C36.20810842 28.37567475 32.66858549 31.91772958 28 35 C24.23167416 36.43958515 20.2247046 36.11096155 16.25 36.0625 C13.8575 36.041875 11.465 36.02125 9 36 C9 41.94 9 47.88 9 54 C6.03 54 3.06 54 0 54 C0 36.18 0 18.36 0 0 Z " fill="#1563B9" transform="translate(123,63)"/>
<path d="M0 0 C5.83615849 0.0320668 9.02568761 0.98337215 13.44921875 4.734375 C15.01961854 6.53147292 15.9770223 8.26104806 16.9375 10.4375 C17.5975 10.4375 18.2575 10.4375 18.9375 10.4375 C19.9375 13.4375 19.9375 13.4375 19.9375 24.4375 C9.7075 24.4375 -0.5225 24.4375 -11.0625 24.4375 C-8.0625 32.4375 -8.0625 32.4375 -3.0625 34.4375 C1.75438464 35.1906856 5.0833297 34.94367499 9.3125 32.4375 C10.17875 31.7775 11.045 31.1175 11.9375 30.4375 C14.9375 30.4375 14.9375 30.4375 16.625 31.9375 C17.058125 32.4325 17.49125 32.9275 17.9375 33.4375 C16.13276348 37.76886765 13.78539683 39.32108938 9.70703125 41.44921875 C3.95438943 43.50199503 -2.48556307 43.60700286 -8.30859375 41.703125 C-12.12798754 39.69896998 -14.65973879 36.95582892 -17.0625 33.4375 C-17.64 32.73625 -18.2175 32.035 -18.8125 31.3125 C-21.26363352 25.6748929 -20.44407087 19.5534839 -19.375 13.625 C-16.79010717 7.34740312 -13.22472217 4.09845957 -7.0625 1.4375 C-5.22012028 -0.40487972 -2.48196289 0.09403533 0 0 Z " fill="#1965BB" transform="translate(344.0625,75.5625)"/>
<path d="M0 0 C-2.70087152 2.89586354 -5.24328824 4.89664388 -8.73046875 6.76171875 C-9.61541016 7.24060547 -10.50035156 7.71949219 -11.41210938 8.21289062 C-12.78592773 8.94282227 -12.78592773 8.94282227 -14.1875 9.6875 C-16.01504994 10.66922071 -17.8419116 11.65222415 -19.66796875 12.63671875 C-20.47516357 13.06686279 -21.2823584 13.49700684 -22.11401367 13.94018555 C-23.95052623 14.86051344 -23.95052623 14.86051344 -25 16 C-26.99583789 16.29996968 -28.99704682 16.56444909 -31 16.8125 C-36.20855627 17.56802684 -40.49868679 18.74934339 -45.1953125 21.09765625 C-47 22 -47 22 -50 23 C-50 19.7 -50 16.4 -50 13 C-48.85660156 12.44570312 -47.71320312 11.89140625 -46.53515625 11.3203125 C-45.04411537 10.58885848 -43.55323838 9.85707033 -42.0625 9.125 C-41.30775391 8.76019531 -40.55300781 8.39539063 -39.77539062 8.01953125 C-39.05673828 7.66503906 -38.33808594 7.31054688 -37.59765625 6.9453125 C-36.93258057 6.62062988 -36.26750488 6.29594727 -35.58227539 5.96142578 C-33.81950756 5.08247732 -33.81950756 5.08247732 -33 3 C-35.56440947 4.0998936 -38.12649227 5.204736 -40.6875 6.3125 C-41.7693457 6.7755957 -41.7693457 6.7755957 -42.87304688 7.24804688 C-46.77143808 8.93912982 -50.35584142 10.80268731 -54 13 C-54.66 13 -55.32 13 -56 13 C-55.85758352 15.35441716 -55.71115192 17.70847484 -55.5625 20.0625 C-55.48128906 21.37347656 -55.40007813 22.68445313 -55.31640625 24.03515625 C-55.10556806 26.67714099 -54.80046467 29.31328158 -54.40234375 31.93359375 C-54.26957031 32.94550781 -54.13679688 33.95742187 -54 35 C-55 36 -55 36 -57.5625 36.0625 C-58.366875 36.041875 -59.17125 36.02125 -60 36 C-59.9278125 35.17757812 -59.855625 34.35515625 -59.78125 33.5078125 C-59.21115591 26.65084752 -58.8602242 19.88007561 -59 13 C-61.31 12.34 -63.62 11.68 -66 11 C-64.86991316 7.60973947 -64.48503818 7.40434665 -61.53515625 5.73046875 C-60.46527466 5.11365234 -60.46527466 5.11365234 -59.3737793 4.484375 C-58.22969604 3.84242187 -58.22969604 3.84242187 -57.0625 3.1875 C-55.50760916 2.29592744 -53.95292082 1.40400163 -52.3984375 0.51171875 C-51.64272461 0.08165527 -50.88701172 -0.3484082 -50.10839844 -0.79150391 C-46.69533619 -2.74780985 -43.34036764 -4.79807705 -39.98046875 -6.84375 C-39.32691406 -7.2253125 -38.67335938 -7.606875 -38 -8 C-37.33097656 -8.39316406 -36.66195312 -8.78632812 -35.97265625 -9.19140625 C-27.60890313 -12.61971694 -8.52627278 -2.89284255 0 0 Z " fill="#1972D1" transform="translate(79,55)"/>
<path d="M0 0 C3.35449411 2.84402762 5.28577274 4.6744641 6 9 C6.08173345 11.24353937 6.10750277 13.48936892 6.09765625 15.734375 C6.09443359 17.02988281 6.09121094 18.32539062 6.08789062 19.66015625 C6.07953598 21.02343817 6.07107104 22.38671942 6.0625 23.75 C6.05748168 25.12890465 6.05291935 26.50781104 6.04882812 27.88671875 C6.03704093 31.25785659 6.02058635 34.62890628 6 38 C3.69 38 1.38 38 -1 38 C-1 36.35 -1 34.7 -1 33 C-1.66 33 -2.32 33 -3 33 C-3.0825 33.61875 -3.165 34.2375 -3.25 34.875 C-4 37 -4 37 -5.6484375 38.10546875 C-10.54106052 39.96661604 -15.87154222 39.64185159 -21 39 C-23.84150454 37.63262125 -24.93744335 36.47506798 -27 34 C-27 33.34 -27 32.68 -27 32 C-27.66 32 -28.32 32 -29 32 C-30.06247941 22.52200907 -30.06247941 22.52200907 -27.58203125 18.96875 C-21.95546342 14.07399589 -17.0467589 13.8537033 -9.75 13.9375 C-9.00492188 13.94201172 -8.25984375 13.94652344 -7.4921875 13.95117188 C-5.6614236 13.96290754 -3.83070127 13.9808415 -2 14 C-3.61673375 9.18659258 -3.61673375 9.18659258 -6.87890625 5.54296875 C-9.42198697 4.89197755 -11.3353526 4.97971381 -13.9375 5.3125 C-15.24654297 5.47492188 -15.24654297 5.47492188 -16.58203125 5.640625 C-19.07629356 6.01133927 -21.54360418 6.42684098 -24 7 C-25.125 1.25 -25.125 1.25 -24 -1 C-15.93080269 -4.09033089 -7.64503325 -4.34717577 0 0 Z " fill="#1F67BA" transform="translate(215,79)"/>
<path d="M0 0 C3.94059577 2.26882787 6.02704702 5.13914466 8.0625 9.1875 C8.40307617 12.60083008 8.40307617 12.60083008 8.35546875 16.45703125 C8.35122391 17.13803391 8.34697906 17.81903656 8.34260559 18.52067566 C8.3259061 20.68086459 8.28827312 22.84009642 8.25 25 C8.23494174 26.47068958 8.22125534 27.94139389 8.20898438 29.41210938 C8.17603214 33.00421357 8.12431173 36.59576326 8.0625 40.1875 C5.4225 40.1875 2.7825 40.1875 0.0625 40.1875 C0.05839111 39.39577393 0.05428223 38.60404785 0.05004883 37.78833008 C0.01709846 34.19146748 -0.05355043 30.59629525 -0.125 27 C-0.13080078 25.75412109 -0.13660156 24.50824219 -0.14257812 23.22460938 C-0.01734849 16.00641042 -0.01734849 16.00641042 -3.203125 9.86328125 C-7.22968976 7.39557228 -10.36032138 7.09239932 -14.9375 8.1875 C-19.12602272 12.16659658 -20.05558486 15.24190033 -20.25390625 20.8515625 C-20.29580078 21.97304687 -20.33769531 23.09453125 -20.38085938 24.25 C-20.43983398 26.0134375 -20.43983398 26.0134375 -20.5 27.8125 C-20.54318359 28.99585937 -20.58636719 30.17921875 -20.63085938 31.3984375 C-20.73717426 34.32800328 -20.83920642 37.25765588 -20.9375 40.1875 C-23.9075 40.1875 -26.8775 40.1875 -29.9375 40.1875 C-29.9375 26.9875 -29.9375 13.7875 -29.9375 0.1875 C-27.2975 0.1875 -24.6575 0.1875 -21.9375 0.1875 C-21.9375 2.1675 -21.9375 4.1475 -21.9375 6.1875 C-21.2775 6.1875 -20.6175 6.1875 -19.9375 6.1875 C-19.5971875 5.2903125 -19.5971875 5.2903125 -19.25 4.375 C-15.15199978 -2.45500037 -6.87831133 -1.90251165 0 0 Z " fill="#1C66BC" transform="translate(307.9375,76.8125)"/>
<path d="M0 0 C4.85965186 1.68394716 8.16672359 4.75008538 11 9 C12.13917218 12.41751653 12.11338481 15.03487937 12.09765625 18.63671875 C12.09443359 19.93544922 12.09121094 21.23417969 12.08789062 22.57226562 C12.07953531 23.94401108 12.07107037 25.31575587 12.0625 26.6875 C12.05748335 28.07096195 12.05292073 29.45442563 12.04882812 30.83789062 C12.03702529 34.22530395 12.02056019 37.61263033 12 41 C9.03 41 6.06 41 3 41 C2.99589111 40.20827393 2.99178223 39.41654785 2.98754883 38.60083008 C2.95459846 35.00396748 2.88394957 31.40879525 2.8125 27.8125 C2.80669922 26.56662109 2.80089844 25.32074219 2.79492188 24.03710938 C2.92203811 16.80677291 2.92203811 16.80677291 -0.30078125 10.67578125 C-3.60994311 8.62132331 -5.28107226 8.2677701 -9.06640625 8.50390625 C-12.38234723 9.35466283 -13.97439672 11.36057754 -16 14 C-17.01587978 17.04763934 -17.19804406 19.34718967 -17.31640625 22.54296875 C-17.35830078 23.61611328 -17.40019531 24.68925781 -17.44335938 25.79492188 C-17.50233398 27.47424805 -17.50233398 27.47424805 -17.5625 29.1875 C-17.60568359 30.31865234 -17.64886719 31.44980469 -17.69335938 32.61523438 C-17.79949099 35.41003354 -17.90154385 38.20492162 -18 41 C-20.64 41 -23.28 41 -26 41 C-26 27.8 -26 14.6 -26 1 C-23.69 1 -21.38 1 -19 1 C-18.67 2.65 -18.34 4.3 -18 6 C-17.05125 5.195625 -16.1025 4.39125 -15.125 3.5625 C-10.31615202 -0.51456677 -6.21147184 -0.67050371 0 0 Z " fill="#1762B9" transform="translate(257,76)"/>
<path d="M0 0 C3.51504766 -0.64826699 6.50557171 -0.83389766 10 0 C13.25655811 2.95661197 15.56492179 6.35931934 18 10 C18.66 10.66 19.32 11.32 20 12 C20.56589844 11.21753906 21.13179688 10.43507813 21.71484375 9.62890625 C22.44832031 8.61699219 23.18179687 7.60507813 23.9375 6.5625 C24.66839844 5.55316406 25.39929688 4.54382813 26.15234375 3.50390625 C28 1 28 1 29 0 C30.51928038 -0.07179964 32.04167482 -0.08392007 33.5625 -0.0625 C34.38878906 -0.05347656 35.21507812 -0.04445313 36.06640625 -0.03515625 C36.70449219 -0.02355469 37.34257812 -0.01195313 38 0 C36.88296652 5.1942057 34.22610798 8.80379709 30.4375 12.5 C27.85083756 15.15298711 26.48921367 17.62967432 25 21 C25.66 21 26.32 21 27 21 C28.26171875 22.43359375 28.26171875 22.43359375 29.6875 24.4375 C32.56966086 28.42982652 35.59253769 32.28163774 38.6796875 36.1171875 C40 38 40 38 40 40 C36.3893252 40.89882756 33.58817225 41.06964485 30 40 C26.76167626 37.13284995 24.43438853 33.50581601 22.03125 29.94140625 C20.32109974 26.95977384 20.32109974 26.95977384 18 26 C17.731875 26.55171875 17.46375 27.1034375 17.1875 27.671875 C14.89200876 32.17224598 12.65736183 36.45547873 9 40 C5.51363322 40.84241177 2.51005379 40.63562342 -1 40 C-0.40732592 36.92989802 0.4889538 35.06069339 2.46875 32.65234375 C2.95730469 32.04712891 3.44585937 31.44191406 3.94921875 30.81835938 C4.46097656 30.19767578 4.97273438 29.57699219 5.5 28.9375 C6.51423059 27.69972992 7.52480786 26.45895495 8.53125 25.21484375 C8.98048828 24.66948975 9.42972656 24.12413574 9.89257812 23.56225586 C11.20386625 21.87280422 11.20386625 21.87280422 12 19 C9.36368405 13.38350079 5.58377056 8.87263171 1.609375 4.13671875 C0 2 0 2 0 0 Z " fill="#89D054" transform="translate(369,77)"/>
<path d="M0 0 C2.24184826 1.58977914 4.09409409 3.06577663 6.0625 4.9375 C6.58763184 5.42895508 7.11276367 5.92041016 7.65380859 6.42675781 C14.61948296 13.22030572 18.96077368 22.23425487 19.23046875 32.078125 C19.22654762 33.46881823 19.21214471 34.85951962 19.1875 36.25 C19.18685547 36.95640625 19.18621094 37.6628125 19.18554688 38.390625 C19.15887779 41.51979709 18.99604825 44.01185525 18 47 C17.34 47 16.68 47 16 47 C15.896875 47.721875 15.79375 48.44375 15.6875 49.1875 C14.94013068 52.24491993 13.71954811 54.38329635 12 57 C10.68 56.67 9.36 56.34 8 56 C8.33 55.67 8.66 55.34 9 55 C11.31111966 41.61017977 8.99787214 30.45751505 1.375 19.0625 C-2.38660723 14.23438344 -6.77354375 10.89256176 -11.875 7.55859375 C-12.57625 7.04425781 -13.2775 6.52992187 -14 6 C-14 5.34 -14 4.68 -14 4 C-12.4609375 2.67578125 -12.4609375 2.67578125 -10.375 1.3125 C-9.70210938 0.85488281 -9.02921875 0.39726563 -8.3359375 -0.07421875 C-5.07124038 -1.36808701 -3.34885005 -1.02782316 0 0 Z " fill="#1566C3" transform="translate(87,58)"/>
<path d="M0 0 C2.97 0 5.94 0 9 0 C9.33 15.51 9.66 31.02 10 47 C11.32 47.33 12.64 47.66 14 48 C14 50.31 14 52.62 14 55 C10.86128812 56.56935594 8.46144178 56.35201103 5 56 C2.30004883 54.2043457 2.30004883 54.2043457 0 51 C-0.69312151 47.11361934 -0.5815065 43.29219363 -0.48828125 39.35546875 C-0.48120651 38.2305452 -0.47413177 37.10562164 -0.46684265 35.9466095 C-0.43889144 32.35955851 -0.37614717 28.77407788 -0.3125 25.1875 C-0.28741827 22.75327778 -0.26460489 20.31903105 -0.24414062 17.88476562 C-0.18906226 11.9226428 -0.10542705 5.9614336 0 0 Z " fill="#1E68BD" transform="translate(168,62)"/>
<path d="M0 0 C1.48125722 20.25144493 1.48125722 20.25144493 -1.7578125 26.26171875 C-4.0625 28.5625 -4.0625 28.5625 -6.53125 30.65234375 C-9.65758497 33.62533001 -11.24062776 36.75886511 -13.0625 40.625 C-13.36099854 41.2547876 -13.65949707 41.8845752 -13.96704102 42.53344727 C-14.65799056 44.01617426 -15.33104552 45.50722054 -16 47 C-16.33 47 -16.66 47 -17 47 C-17 33.8 -17 20.6 -17 7 C-15.35 6.34 -13.7 5.68 -12 5 C-12 4.34 -12 3.68 -12 3 C-10.56445975 2.49440092 -9.1264798 1.9957251 -7.6875 1.5 C-6.88699219 1.2215625 -6.08648437 0.943125 -5.26171875 0.65625 C-3 0 -3 0 0 0 Z " fill="#73C044" transform="translate(47,75)"/>
<path d="M0 0 C3.35449411 2.84402762 5.28577274 4.6744641 6 9 C6.08173345 11.24353937 6.10750277 13.48936892 6.09765625 15.734375 C6.09443359 17.02988281 6.09121094 18.32539062 6.08789062 19.66015625 C6.07953598 21.02343817 6.07107104 22.38671942 6.0625 23.75 C6.05748168 25.12890465 6.05291935 26.50781104 6.04882812 27.88671875 C6.03704093 31.25785659 6.02058635 34.62890628 6 38 C3.69 38 1.38 38 -1 38 C-1.12375 36.865625 -1.2475 35.73125 -1.375 34.5625 C-1.58125 33.386875 -1.7875 32.21125 -2 31 C-2.66 30.67 -3.32 30.34 -4 30 C-3.67 26.7 -3.34 23.4 -3 20 C-5.97 20 -8.94 20 -12 20 C-12 19.67 -12 19.34 -12 19 C-13.65 18.67 -15.3 18.34 -17 18 C-16.67 17.34 -16.34 16.68 -16 16 C-11.71 16 -7.42 16 -3 16 C-2.62429489 10.51085459 -2.62429489 10.51085459 -3.9375 7.6875 C-7.27112953 4.95998493 -10.78591216 4.91426738 -15 5 C-18.0653515 5.46696908 -21.02008914 6.14759051 -24 7 C-25.125 1.25 -25.125 1.25 -24 -1 C-15.93080269 -4.09033089 -7.64503325 -4.34717577 0 0 Z " fill="#1864BB" transform="translate(215,79)"/>
<path d="M0 0 C13.52506793 -0.40985054 13.52506793 -0.40985054 18 3 C20.4434877 6.66523155 20.84707648 9.73970357 20 14 C17.5625 16.9375 17.5625 16.9375 15 19 C14.67 19.33 14.34 19.66 14 20 C9.33154772 20.14426614 4.67134047 20.04208415 0 20 C0 13.4 0 6.8 0 0 Z " fill="#F5FAFC" transform="translate(132,71)"/>
<path d="M0 0 C2.31 0 4.62 0 7 0 C7 0.66 7 1.32 7 2 C5.35 2 3.7 2 2 2 C2 2.66 2 3.32 2 4 C4.64 3.67 7.28 3.34 10 3 C10.33 2.01 10.66 1.02 11 0 C14.04386724 -0.08226668 16.07175348 0.02391783 19 1 C20.39439664 1.06665376 21.79169875 1.08538199 23.1875 1.0625 C24.445625 1.041875 25.70375 1.02125 27 1 C27 1.33 27 1.66 27 2 C25.02 2 23.04 2 21 2 C21 2.99 21 3.98 21 5 C22.98 5 24.96 5 27 5 C27 5.66 27 6.32 27 7 C25.35 7 23.7 7 22 7 C22 7.99 22 8.98 22 10 C23.65 10 25.3 10 27 10 C27 10.66 27 11.32 27 12 C24.58303128 12.05411124 22.16728213 12.09372278 19.75 12.125 C19.06808594 12.14175781 18.38617188 12.15851563 17.68359375 12.17578125 C13.9391765 12.21213482 11.17647273 12.07944349 8 10 C8 10.66 8 11.32 8 12 C5.36 12 2.72 12 0 12 C0 8.04 0 4.08 0 0 Z " fill="#D3D3D3" transform="translate(220,138)"/>
<path d="M0 0 C2.75741696 1.2617766 5.06571556 2.65044546 7 5 C7.33 6.98 7.66 8.96 8 11 C0.41 11 -7.18 11 -15 11 C-15 9.35 -15 7.7 -15 6 C-9.95552535 1.17485033 -7.0097224 -0.68948089 0 0 Z " fill="#E4EFF5" transform="translate(348,83)"/>
<path d="M0 0 C2.64933672 -0.28641478 4.8315002 -0.03456406 7.4375 0.5 C10.0870144 1.11886919 10.0870144 1.11886919 13.1875 0.875 C14.115625 0.91625 15.04375 0.9575 16 1 C18 4 18 4 17.75 7.0625 C17 10 17 10 15 12 C13.01171875 11.94140625 13.01171875 11.94140625 10.6875 11.5625 C7.78587923 11.14798275 6.02657447 10.99422294 3.125 11.625 C1 12 1 12 -0.8125 10.9375 C-2.50608328 8.17428518 -2.33142708 6.18170002 -2 3 C-1.34 2.01 -0.68 1.02 0 0 Z " fill="#DBDBDA" transform="translate(184,138)"/>
<path d="M0 0 C1.26328125 0.02707031 2.5265625 0.05414063 3.828125 0.08203125 C4.79234375 0.11683594 5.7565625 0.15164062 6.75 0.1875 C6.984375 6.8203125 6.984375 6.8203125 4.875 10.125 C0.63604077 12.92271309 -3.28329424 13.19767744 -8.25 12.1875 C-10.86967179 10.20691298 -11.20042866 9.52741776 -11.6875 6.1875 C-11.25 3.1875 -11.25 3.1875 -9.67578125 1.51171875 C-6.34347629 -0.3073656 -3.76997336 -0.10472148 0 0 Z " fill="#F1F7FA" transform="translate(205.25,98.8125)"/>
<path d="M0 0 C2.62594784 0.1136515 5.25011547 0.24039054 7.875 0.375 C8.62136719 0.4059375 9.36773437 0.436875 10.13671875 0.46875 C15.7734375 0.7734375 15.7734375 0.7734375 18 3 C17.42307692 9.57692308 17.42307692 9.57692308 16 11 C13.30764224 11.23678716 10.63501844 11.42198025 7.9375 11.5625 C6.79958008 11.62727539 6.79958008 11.62727539 5.63867188 11.69335938 C3.75934562 11.79973633 1.87969756 11.90039934 0 12 C0 8.04 0 4.08 0 0 Z " fill="#DBDBDB" transform="translate(391,138)"/>
<path d="M0 0 C1.13308594 -0.01417969 2.26617187 -0.02835937 3.43359375 -0.04296875 C6.41707979 0.17678865 8.05545423 0.62906614 10.5625 2.1875 C4.72365702 8.35072314 4.72365702 8.35072314 1.5625 9.1875 C-0.78921131 8.58888258 -3.1234378 7.91825648 -5.4375 7.1875 C-8.02332128 6.60347867 -8.02332128 6.60347867 -10.4375 7.1875 C-13.12517578 9.62500025 -13.12517578 9.62500025 -15.4375 12.1875 C-16.0975 12.1875 -16.7575 12.1875 -17.4375 12.1875 C-16.11521571 6.50167757 -14.03494698 4.4713907 -9.4375 1.1875 C-6.10499498 0.07666499 -3.50711042 0.01990415 0 0 Z " fill="#88D349" transform="translate(70.4375,79.8125)"/>
<path d="M0 0 C0 0.99 0 1.98 0 3 C-0.90363281 3.43570313 -1.80726562 3.87140625 -2.73828125 4.3203125 C-3.93015758 4.92094309 -5.12153818 5.5225581 -6.3125 6.125 C-7.48425781 6.70507812 -8.65601562 7.28515625 -9.86328125 7.8828125 C-13.3763243 10.25400719 -14.47171401 12.10480176 -16 16 C-18.31 16 -20.62 16 -23 16 C-24 13 -24 13 -22.4375 9.5625 C-20.14019514 5.89146892 -17.98604251 3.884311 -14 2 C-11.15361905 1.55550785 -8.3653131 1.31505665 -5.48828125 1.17578125 C-2.86867624 1.09433086 -2.86867624 1.09433086 0 0 Z " fill="#134498" transform="translate(77,112)"/>
<path d="M0 0 C0 0.99 0 1.98 0 3 C0.99 3 1.98 3 3 3 C3.25 9.625 3.25 9.625 1 13 C-0.875 13.3984375 -0.875 13.3984375 -3 13.375 C-3.70125 13.38273437 -4.4025 13.39046875 -5.125 13.3984375 C-7 13 -7 13 -9 10 C-9.54170249 3.93293207 -9.54170249 3.93293207 -7.875 1.0625 C-5.214973 -0.44484863 -2.99793795 -0.19986253 0 0 Z " fill="#F6FBF0" transform="translate(71,87)"/>
<path d="M0 0 C5.74481523 3.14471537 12.14826898 6.97266807 14.7109375 13.21484375 C15.17977136 15.63830115 15.48777748 17.93306044 15.5546875 20.3984375 C13.5546875 19.3984375 13.5546875 19.3984375 11.8671875 16.0859375 C9.58427156 12.0640495 6.9509304 9.85409863 2.5546875 8.3984375 C-2.09194921 7.50778972 -6.7413428 6.89427897 -11.4453125 6.3984375 C-11.4453125 5.7384375 -11.4453125 5.0784375 -11.4453125 4.3984375 C-10.06356679 3.50135641 -8.66414511 2.63146098 -7.2578125 1.7734375 C-6.48050781 1.28617187 -5.70320313 0.79890625 -4.90234375 0.296875 C-2.4453125 -0.6015625 -2.4453125 -0.6015625 0 0 Z " fill="#1150A8" transform="translate(73.4453125,63.6015625)"/>
<path d="M0 0 C0 2.97 0 5.94 0 9 C-0.75925781 9.04898438 -1.51851562 9.09796875 -2.30078125 9.1484375 C-3.29464844 9.22320312 -4.28851563 9.29796875 -5.3125 9.375 C-6.79169922 9.47941406 -6.79169922 9.47941406 -8.30078125 9.5859375 C-11.21528433 9.83865472 -11.21528433 9.83865472 -14 12 C-14.73343428 15.06556598 -14.73343428 15.06556598 -15 18 C-15.33 18 -15.66 18 -16 18 C-16 14.04 -16 10.08 -16 6 C-14.35 5.34 -12.7 4.68 -11 4 C-11 3.34 -11 2.68 -11 2 C-7.36576791 -0.32590854 -4.22911669 -0.16265833 0 0 Z " fill="#57A837" transform="translate(46,76)"/>
<path d="M0 0 C2.31 0 4.62 0 7 0 C7 0.66 7 1.32 7 2 C5.35 2 3.7 2 2 2 C2 2.66 2 3.32 2 4 C4.64 3.67 7.28 3.34 10 3 C10.061875 3.78375 10.12375 4.5675 10.1875 5.375 C10.455625 6.24125 10.72375 7.1075 11 8 C13.47636012 9.37466625 13.47636012 9.37466625 16 10 C16 8.68 16 7.36 16 6 C16.66 6 17.32 6 18 6 C18 7.65 18 9.3 18 11 C12.58461538 12.23076923 12.58461538 12.23076923 9.625 11.0625 C9.08875 10.711875 8.5525 10.36125 8 10 C8 10.66 8 11.32 8 12 C5.36 12 2.72 12 0 12 C0 8.04 0 4.08 0 0 Z " fill="#A8A7A7" transform="translate(220,138)"/>
<path d="M0 0 C1.98 0 3.96 0 6 0 C6 0.66 6 1.32 6 2 C7.65 1.34 9.3 0.68 11 0 C11 3.96 11 7.92 11 12 C10.34 12 9.68 12 9 12 C8.34 11.34 7.68 10.68 7 10 C6.34 10.66 5.68 11.32 5 12 C2.375 11.625 2.375 11.625 0 11 C0 10.01 0 9.02 0 8 C2.475 8.99 2.475 8.99 5 10 C5 9.01 5 8.02 5 7 C3.35 6.67 1.7 6.34 0 6 C-1.125 2.25 -1.125 2.25 0 0 Z " fill="#BFBFC0" transform="translate(330,138)"/>
<path d="M0 0 C-1.27366322 4.56395988 -3.01792753 7.36559917 -6 11 C-7.24016669 13.6794645 -7.24016669 13.6794645 -8 16 C-9.32 15.34 -10.64 14.68 -12 14 C-12.33 23.57 -12.66 33.14 -13 43 C-13.33 43 -13.66 43 -14 43 C-14.11690073 38.50022116 -14.18748837 34.00083713 -14.25 29.5 C-14.28351562 28.2315625 -14.31703125 26.963125 -14.3515625 25.65625 C-14.44176317 16.99698549 -13.77049047 11.21156672 -7.9296875 4.6875 C-7.25164063 4.130625 -6.57359375 3.57375 -5.875 3 C-5.19179688 2.4225 -4.50859375 1.845 -3.8046875 1.25 C-2 0 -2 0 0 0 Z " fill="#E1F0D8" transform="translate(61,111)"/>
<path d="M0 0 C0.33 0 0.66 0 1 0 C1.33 12.54 1.66 25.08 2 38 C3.32 35.36 4.64 32.72 6 30 C6.99 30 7.98 30 9 30 C8.39248551 33.51982619 7.45353734 36.58900235 6.0625 39.875 C4.4142742 43.87869031 3.09223957 47.81308165 2 52 C0.89155081 48.67465243 1.15545644 46.37817425 2 43 C1.34 43 0.68 43 0 43 C0 28.81 0 14.62 0 0 Z " fill="#CEE7BA" transform="translate(29,82)"/>
<path d="M0 0 C2.4375 -0.4375 2.4375 -0.4375 5 0 C6.875 1.625 6.875 1.625 8 4 C7.875 7.125 7.875 7.125 7 10 C4 12 4 12 1.9375 11.75 C0 11 0 11 -2 9 C-2.34490322 4.94738713 -2.30163882 3.45245824 0 0 Z " fill="#AEAEAE" transform="translate(262,138)"/>
<path d="M0 0 C3 0.25 3 0.25 5 2.25 C5.33661952 5.4142235 5.49943411 7.43513382 3.8125 10.1875 C2 11.25 2 11.25 -0.5625 11.0625 C-3 10.25 -3 10.25 -5 8.25 C-5.25 5.25 -5.25 5.25 -5 2.25 C-3 0.25 -3 0.25 0 0 Z " fill="#787778" transform="translate(151,138.75)"/>
<path d="M0 0 C0.99 0.103125 1.98 0.20625 3 0.3125 C5 3.3125 5 3.3125 4.75 6.375 C4 9.3125 4 9.3125 2 11.3125 C-0.5 11.125 -0.5 11.125 -3 10.3125 C-5.14915785 7.08876323 -5.38286803 6.04546326 -5 2.3125 C-3 0.3125 -3 0.3125 0 0 Z " fill="#585858" transform="translate(197,138.6875)"/>
<path d="M0 0 C0.33 0 0.66 0 1 0 C1 7.92 1 15.84 1 24 C1.66 24.33 2.32 24.66 3 25 C1.56354149 26.60509934 0.12579294 28.20904424 -1.3125 29.8125 C-2.11300781 30.70582031 -2.91351563 31.59914063 -3.73828125 32.51953125 C-5.45224581 34.39926786 -7.17877604 36.22592747 -9 38 C-9.66 37.67 -10.32 37.34 -11 37 C-9.67711613 32.94130918 -8.2196309 31.25785274 -4.9375 28.625 C1.97187616 21.36578201 0.16751336 9.37958511 0 0 Z " fill="#E4F3D6" transform="translate(47,75)"/>
<path d="M0 0 C3.375 -0.125 3.375 -0.125 7 0 C7.66 0.66 8.32 1.32 9 2 C8.42307692 8.57692308 8.42307692 8.57692308 7 10 C4.66702567 10.04092937 2.33294775 10.04241723 0 10 C0 6.7 0 3.4 0 0 Z " fill="#646464" transform="translate(400,139)"/>
<path d="M0 0 C1.6266848 0.28211877 3.25132896 0.57602375 4.875 0.875 C5.77992187 1.03742187 6.68484375 1.19984375 7.6171875 1.3671875 C10 2 10 2 12 4 C5.02846497 8.59646298 -2.05839758 12.74122979 -9.4453125 16.6171875 C-11.86493539 17.76985086 -11.86493539 17.76985086 -13 19 C-14.68608966 19.07205511 -16.37500659 19.08386068 -18.0625 19.0625 C-18.98160156 19.05347656 -19.90070312 19.04445313 -20.84765625 19.03515625 C-21.55792969 19.02355469 -22.26820312 19.01195313 -23 19 C-23 18.34 -23 17.68 -23 17 C-22.35675781 16.93683594 -21.71351562 16.87367187 -21.05078125 16.80859375 C-13.65589615 15.80643386 -8.15993838 13.2360214 -1.75 9.4609375 C1 8 1 8 4 8 C4 7.34 4 6.68 4 6 C5.32 5.67 6.64 5.34 8 5 C8 4.34 8 3.68 8 3 C7.05125 2.87625 6.1025 2.7525 5.125 2.625 C2 2 2 2 0 0 Z " fill="#1E69B9" transform="translate(67,52)"/>
<path d="M0 0 C0.66 0.99 1.32 1.98 2 3 C-1.32806054 5.00888966 -4.66190337 7.0078317 -8 9 C-8.71027344 9.42539063 -9.42054687 9.85078125 -10.15234375 10.2890625 C-14.76483813 13 -14.76483813 13 -17 13 C-17 13.66 -17 14.32 -17 15 C-13.7 15 -10.4 15 -7 15 C-7 15.33 -7 15.66 -7 16 C-10.96 16 -14.92 16 -19 16 C-19.33 15.34 -19.66 14.68 -20 14 C-20.66 13.67 -21.32 13.34 -22 13 C-21.47567383 12.71278076 -20.95134766 12.42556152 -20.41113281 12.12963867 C-18.02233542 10.81875837 -15.63615692 9.50318008 -13.25 8.1875 C-12.425 7.73568359 -11.6 7.28386719 -10.75 6.81835938 C-9.95078125 6.37685547 -9.1515625 5.93535156 -8.328125 5.48046875 C-7.5949707 5.07723389 -6.86181641 4.67399902 -6.10644531 4.25854492 C-3.94955735 2.96986186 -1.98215444 1.54145805 0 0 Z " fill="#CADFEB" transform="translate(79,55)"/>
<path d="M0 0 C3.63 0 7.26 0 11 0 C11.33 0.99 11.66 1.98 12 3 C14.12364481 3.22609337 14.12364481 3.22609337 15.625 1.5 C16.07875 1.005 16.5325 0.51 17 0 C16.690625 0.70125 16.38125 1.4025 16.0625 2.125 C14.96697322 5.08936657 14.43577008 7.87698108 14 11 C13.34 11 12.68 11 12 11 C11.690625 9.865625 11.38125 8.73125 11.0625 7.5625 C10.37075469 4.21224901 10.37075469 4.21224901 9 3 C6.67182036 2.63239269 4.3381615 2.29758419 2 2 C2 2.99 2 3.98 2 5 C3.32 5.33 4.64 5.66 6 6 C4.68 6 3.36 6 2 6 C2 7.65 2 9.3 2 11 C1.34 11 0.68 11 0 11 C0 7.37 0 3.74 0 0 Z " fill="#8A8A8B" transform="translate(304,138)"/>
<path d="M0 0 C3.63 0 7.26 0 11 0 C11 3.96 11 7.92 11 12 C10.01 11.67 9.02 11.34 8 11 C8 8.03 8 5.06 8 2 C5.69 2 3.38 2 1 2 C1 2.99 1 3.98 1 5 C2.98 5 4.96 5 7 5 C7 5.33 7 5.66 7 6 C5.02 6 3.04 6 1 6 C1 7.65 1 9.3 1 11 C0.67 11 0.34 11 0 11 C0 7.37 0 3.74 0 0 Z " fill="#7B7B7B" transform="translate(378,138)"/>
<path d="M0 0 C1.60725635 3.21451269 1.05748185 6.43612536 1 10 C0.01 10.33 -0.98 10.66 -2 11 C-2.33 10.34 -2.66 9.68 -3 9 C-3.99 8.67 -4.98 8.34 -6 8 C-6.33 8.66 -6.66 9.32 -7 10 C-7.25 6.6875 -7.25 6.6875 -7 3 C-4.56116264 0.39296695 -3.59761735 0 0 0 Z " fill="#499931" transform="translate(82,87)"/>
<path d="M0 0 C0.33 0 0.66 0 1 0 C1 2.97 1 5.94 1 9 C1.825 8.38125 2.65 7.7625 3.5 7.125 C7.2529888 4.64375859 10.53744483 3.64779027 15 3 C16.32 3.99 17.64 4.98 19 6 C15.04 6.99 11.08 7.98 7 9 C7 9.66 7 10.32 7 11 C5.68 11.33 4.36 11.66 3 12 C3 11.34 3 10.68 3 10 C2.01 10 1.02 10 0 10 C0 6.7 0 3.4 0 0 Z " fill="#E1F0EA" transform="translate(28,69)"/>
<path d="M0 0 C2.31 0 4.62 0 7 0 C7.33 1.65 7.66 3.3 8 5 C5 7 5 7 2 7 C2 8.32 2 9.64 2 11 C1.34 11 0.68 11 0 11 C0 7.37 0 3.74 0 0 Z " fill="#9A9A9B" transform="translate(356,139)"/>
<path d="M0 0 C5.94 0 11.88 0 18 0 C18 0.99 18 1.98 18 3 C12.06 3 6.12 3 0 3 C0 2.01 0 1.02 0 0 Z " fill="#AFD496" transform="translate(114,143)"/>
<path d="M0 0 C-1 3 -1 3 -4.45703125 4.859375 C-5.90387291 5.5009368 -7.3559917 6.13069726 -8.8125 6.75 C-9.53759766 7.07871094 -10.26269531 7.40742187 -11.00976562 7.74609375 C-11.71423828 8.05160156 -12.41871094 8.35710937 -13.14453125 8.671875 C-13.78753174 8.9512793 -14.43053223 9.23068359 -15.09301758 9.51855469 C-17.38831921 10.09803681 -18.77865878 9.73623356 -21 9 C-3 0 -3 0 0 0 Z " fill="#C8E5F1" transform="translate(46,58)"/>
<path d="M0 0 C0.99 0 1.98 0 3 0 C5.1875 3 5.1875 3 7 6 C6.67 6.66 6.34 7.32 6 8 C5.34 7.34 4.68 6.68 4 6 C3.67 7.98 3.34 9.96 3 12 C1.02 12 -0.96 12 -3 12 C-2.67 11.01 -2.34 10.02 -2 9 C-1.34 9.33 -0.68 9.66 0 10 C0 6.7 0 3.4 0 0 Z " fill="#C0C0C0" transform="translate(292,138)"/>
<path d="M0 0 C0.66 0 1.32 0 2 0 C2.02505615 0.58491211 2.0501123 1.16982422 2.07592773 1.77246094 C2.19222962 4.43184471 2.31480067 7.09090403 2.4375 9.75 C2.47681641 10.67039063 2.51613281 11.59078125 2.55664062 12.5390625 C2.59853516 13.42851562 2.64042969 14.31796875 2.68359375 15.234375 C2.72025146 16.05131836 2.75690918 16.86826172 2.79467773 17.70996094 C2.99134275 19.9034423 3.40300594 21.88396413 4 24 C2.68 23.34 1.36 22.68 0 22 C0 14.74 0 7.48 0 0 Z " fill="#9FD079" transform="translate(29,134)"/>
<path d="M0 0 C1.98 0 3.96 0 6 0 C6.33 0.99 6.66 1.98 7 3 C4.03 2.505 4.03 2.505 1 2 C2.37691962 4.75383923 4.36720042 5.51483101 7 7 C6.67 8.32 6.34 9.64 6 11 C4.35 11.33 2.7 11.66 1 12 C0.34 10.68 -0.32 9.36 -1 8 C0.98 8.66 2.96 9.32 5 10 C5 9.01 5 8.02 5 7 C3.35 6.67 1.7 6.34 0 6 C-1.125 2.25 -1.125 2.25 0 0 Z " fill="#7F7F7F" transform="translate(330,138)"/>
<path d="M0 0 C2.875 -0.125 2.875 -0.125 6 0 C6.66 0.66 7.32 1.32 8 2 C7.61121812 5.01305957 6.73543126 6.39685311 5 9 C5 5 5 5 6 2 C4.68 2 3.36 2 2 2 C2 4.97 2 7.94 2 11 C1.34 11 0.68 11 0 11 C0 7.37 0 3.74 0 0 Z " fill="#6D6D6D" transform="translate(283,138)"/>
<path d="M0 0 C2.31 0 4.62 0 7 0 C7 0.33 7 0.66 7 1 C5.02 1 3.04 1 1 1 C1 1.99 1 2.98 1 4 C2.98 4 4.96 4 7 4 C7 4.66 7 5.32 7 6 C5.35 6 3.7 6 2 6 C2 6.99 2 7.98 2 9 C3.65 9 5.3 9 7 9 C7 9.66 7 10.32 7 11 C4.69 11 2.38 11 0 11 C0 7.37 0 3.74 0 0 Z " fill="#686868" transform="translate(240,139)"/>
<path d="M0 0 C0.66 0 1.32 0 2 0 C2.08131463 1.43655854 2.13933559 2.8744483 2.1875 4.3125 C2.22230469 5.11300781 2.25710937 5.91351563 2.29296875 6.73828125 C2 9 2 9 0.65234375 10.80859375 C-1 12 -1 12 -3.625 11.75 C-6 11 -6 11 -7 10 C-7.07179964 8.48071962 -7.08392007 6.95832518 -7.0625 5.4375 C-7.05347656 4.61121094 -7.04445312 3.78492188 -7.03515625 2.93359375 C-7.02355469 2.29550781 -7.01195312 1.65742188 -7 1 C-6.67 1 -6.34 1 -6 1 C-5.67 3.31 -5.34 5.62 -5 8 C-3.68 8.33 -2.36 8.66 -1 9 C-0.67 6.03 -0.34 3.06 0 0 Z " fill="#787878" transform="translate(165,138)"/>
<path d="M0 0 C1.67542976 0.28604898 3.34385343 0.61781233 5 1 C6.125 4.75 6.125 4.75 5 7 C3.02 7 1.04 7 -1 7 C-1.04254356 5.00045254 -1.04080783 2.99958364 -1 1 C-0.67 0.67 -0.34 0.34 0 0 Z " fill="#EEEEEE" transform="translate(195,140)"/>
<path d="M0 0 C0.66 0 1.32 0 2 0 C2.33 3.63 2.66 7.26 3 11 C1.35 11.33 -0.3 11.66 -2 12 C-1.85962479 10.18706911 -1.71255111 8.3746557 -1.5625 6.5625 C-1.48128906 5.55316406 -1.40007813 4.54382813 -1.31640625 3.50390625 C-1 1 -1 1 0 0 Z " fill="#1463BA" transform="translate(22,79)"/>
<path d="M0 0 C1.67542976 0.28604898 3.34385343 0.61781233 5 1 C5 2.98 5 4.96 5 7 C4.01 7.33 3.02 7.66 2 8 C1.01 7.34 0.02 6.68 -1 6 C-1.25 3.4375 -1.25 3.4375 -1 1 C-0.67 0.67 -0.34 0.34 0 0 Z " fill="#F7F7F6" transform="translate(149,140)"/>
<path d="M0 0 C0.99 0.33 1.98 0.66 3 1 C3.33 4.63 3.66 8.26 4 12 C3.01 12.495 3.01 12.495 2 13 C1.30906104 15.57951874 1.30906104 15.57951874 0.875 18.5625 C0.70742188 19.57441406 0.53984375 20.58632812 0.3671875 21.62890625 C0.24601562 22.41136719 0.12484375 23.19382812 0 24 C-0.33 24 -0.66 24 -1 24 C-0.9278125 23.18917969 -0.855625 22.37835938 -0.78125 21.54296875 C-0.17747859 14.33964043 0.13035532 7.22747819 0 0 Z " fill="#4F8AC0" transform="translate(20,67)"/>
<path d="M0 0 C1.6266848 0.28211877 3.25132896 0.57602375 4.875 0.875 C5.77992187 1.03742187 6.68484375 1.19984375 7.6171875 1.3671875 C10 2 10 2 12 4 C8.37 6.31 4.74 8.62 1 11 C0.34 10.34 -0.32 9.68 -1 9 C0.65 8.67 2.3 8.34 4 8 C4 7.34 4 6.68 4 6 C5.32 5.67 6.64 5.34 8 5 C8 4.34 8 3.68 8 3 C7.05125 2.87625 6.1025 2.7525 5.125 2.625 C2 2 2 2 0 0 Z " fill="#2870BC" transform="translate(67,52)"/>
<path d="M0 0 C2.475 0.495 2.475 0.495 5 1 C5 2.98 5 4.96 5 7 C3.35 7.33 1.7 7.66 0 8 C0 5.36 0 2.72 0 0 Z " fill="#F4F4F4" transform="translate(402,140)"/>
<path d="M0 0 C0.66 0 1.32 0 2 0 C2.33 1.32 2.66 2.64 3 4 C3.66 4 4.32 4 5 4 C5.33 2.68 5.66 1.36 6 0 C6.66 0.33 7.32 0.66 8 1 C7.690625 1.53625 7.38125 2.0725 7.0625 2.625 C5.82172561 5.3984957 5.4090325 8.00042837 5 11 C4.01 10.67 3.02 10.34 2 10 C1.34 6.7 0.68 3.4 0 0 Z " fill="#898989" transform="translate(137,139)"/>
<path d="M0 0 C3.45508381 1.1516946 4.10703624 1.98846674 6 5 C6.6875 7.25 6.6875 7.25 7 9 C6.01 8.67 5.02 8.34 4 8 C3.67 7.34 3.34 6.68 3 6 C2.67 7.32 2.34 8.64 2 10 C1.34 10 0.68 10 0 10 C0 6.7 0 3.4 0 0 Z " fill="#727272" transform="translate(343,139)"/>
<path d="M0 0 C0.91007813 0.00902344 1.82015625 0.01804687 2.7578125 0.02734375 C3.45648438 0.03894531 4.15515625 0.05054687 4.875 0.0625 C4.875 0.3925 4.875 0.7225 4.875 1.0625 C3.72 1.083125 2.565 1.10375 1.375 1.125 C-4.171057 1.75883509 -7.35012633 5.21734942 -11.125 9.0625 C-11.455 8.0725 -11.785 7.0825 -12.125 6.0625 C-6.14123377 -0.07873377 -6.14123377 -0.07873377 0 0 Z " fill="#3D7ABE" transform="translate(252.125,75.9375)"/>
<path d="M0 0 C0.66 0 1.32 0 2 0 C2 3.3 2 6.6 2 10 C3.65 10 5.3 10 7 10 C7 10.66 7 11.32 7 12 C4.69 12 2.38 12 0 12 C0 8.04 0 4.08 0 0 Z " fill="#828383" transform="translate(212,138)"/>
<path d="M0 0 C2.31 0 4.62 0 7 0 C7 0.33 7 0.66 7 1 C5.35 1 3.7 1 2 1 C2 1.99 2 2.98 2 4 C3.32 4.33 4.64 4.66 6 5 C4.68 5 3.36 5 2 5 C2 6.32 2 7.64 2 9 C3.65 9 5.3 9 7 9 C7 9.33 7 9.66 7 10 C4.69 10 2.38 10 0 10 C0 6.7 0 3.4 0 0 Z " fill="#616161" transform="translate(391,139)"/>
<path d="M0 0 C0.66 0 1.32 0 2 0 C2.05395478 1.62463842 2.09277195 3.24978541 2.125 4.875 C2.14820313 5.77992188 2.17140625 6.68484375 2.1953125 7.6171875 C2 10 2 10 0 12 C-2.125 11.625 -2.125 11.625 -4 11 C-4 10.34 -4 9.68 -4 9 C-2.68 9 -1.36 9 0 9 C0 6.03 0 3.06 0 0 Z " fill="#828282" transform="translate(256,138)"/>
<path d="M0 0 C0.66 0 1.32 0 2 0 C2 2.97 2 5.94 2 9 C3.32 9 4.64 9 6 9 C6 9.66 6 10.32 6 11 C4.02 11 2.04 11 0 11 C0 7.37 0 3.74 0 0 Z " fill="#828282" transform="translate(204,139)"/>
<path d="M0 0 C1.65 0 3.3 0 5 0 C5 2.31 5 4.62 5 7 C2.04335481 8.4783226 -0.74229737 8.06032783 -4 8 C-1.8614515 5.8614515 -0.86724686 5.57344937 2 5 C2.33 3.68 2.66 2.36 3 1 C2.01 0.67 1.02 0.34 0 0 Z " fill="#407DBA" transform="translate(177,110)"/>
<path d="M0 0 C0 3.65351863 -0.88942301 5.06026776 -3 8 C-5.1875 9.3125 -5.1875 9.3125 -7 10 C-5.76075855 5.04303419 -4.21422242 2.88341534 0 0 Z " fill="#90CB65" transform="translate(60,82)"/>
<path d="M0 0 C0.33 0 0.66 0 1 0 C1.061875 0.78375 1.12375 1.5675 1.1875 2.375 C1.455625 3.24125 1.72375 4.1075 2 5 C4.47636012 6.37466625 4.47636012 6.37466625 7 7 C7 5.68 7 4.36 7 3 C7.66 3 8.32 3 9 3 C9 4.65 9 6.3 9 8 C3.57534247 9.3260274 3.57534247 9.3260274 1.125 7.9375 C-0.44071111 5.24099753 -0.20391303 3.05869541 0 0 Z " fill="#666666" transform="translate(229,141)"/>
<path d="M0 0 C0.66 0 1.32 0 2 0 C2 3.63 2 7.26 2 11 C1.34 11 0.68 11 0 11 C-0.144375 10.236875 -0.28875 9.47375 -0.4375 8.6875 C-0.9632594 5.91827092 -0.9632594 5.91827092 -2 3 C-1.34 2.01 -0.68 1.02 0 0 Z " fill="#6D6D6E" transform="translate(352,138)"/>
<path d="M0 0 C2.31 0 4.62 0 7 0 C7 0.33 7 0.66 7 1 C5.35 1 3.7 1 2 1 C2 1.99 2 2.98 2 4 C3.32 4.33 4.64 4.66 6 5 C4.68 5 3.36 5 2 5 C2 6.65 2 8.3 2 10 C1.34 10 0.68 10 0 10 C0 6.7 0 3.4 0 0 Z " fill="#565657" transform="translate(304,139)"/>
<path d="M0 0 C-0.66 1.32 -1.32 2.64 -2 4 C-2.33 3.34 -2.66 2.68 -3 2 C-4.12588014 2.95729916 -5.2506715 3.91587895 -6.375 4.875 C-7.00148438 5.40867187 -7.62796875 5.94234375 -8.2734375 6.4921875 C-9.55836651 7.61432007 -10.79371975 8.79371975 -12 10 C-12 6 -12 6 -10.64453125 4.296875 C-4.57121269 -0.83112958 -4.57121269 -0.83112958 0 0 Z " fill="#4B9A31" transform="translate(65,86)"/>
<path d="M0 0 C1.65 0 3.3 0 5 0 C4.49396008 2.16874252 4.00016187 3.99967627 3 6 C2.34 6 1.68 6 1 6 C1 7.32 1 8.64 1 10 C0.34 9.67 -0.32 9.34 -1 9 C-0.67 6.03 -0.34 3.06 0 0 Z " fill="#D8D7D7" transform="translate(170,140)"/>
<path d="M0 0 C1.32 0.66 2.64 1.32 4 2 C0.25 5 0.25 5 -2 5 C-2 6.98 -2 8.96 -2 11 C-2.33 11 -2.66 11 -3 11 C-3 9.02 -3 7.04 -3 5 C-3.99 5 -4.98 5 -6 5 C-4.73775586 2.47551173 -3.49988984 2.17182336 -1 1 C-0.67 0.67 -0.34 0.34 0 0 Z " fill="#C9E9AB" transform="translate(77,85)"/>
<path d="M0 0 C0.33 0 0.66 0 1 0 C1.33 1.65 1.66 3.3 2 5 C4.31 5 6.62 5 9 5 C8.67 5.99 8.34 6.98 8 8 C5.6875 8.6875 5.6875 8.6875 3 9 C1.1875 7.9375 1.1875 7.9375 0 6 C-0.1875 2.8125 -0.1875 2.8125 0 0 Z " fill="#757575" transform="translate(182,141)"/>
<path d="M0 0 C0.66 0 1.32 0 2 0 C2 3.96 2 7.92 2 12 C1.34 12 0.68 12 0 12 C-1.53166168 7.91556885 -0.63081652 4.20544343 0 0 Z " fill="#6E6E6E" transform="translate(300,138)"/>
<path d="M0 0 C0.33 0 0.66 0 1 0 C1 2.97 1 5.94 1 9 C2.32 8.01 3.64 7.02 5 6 C5.66 6.33 6.32 6.66 7 7 C6.01 8.485 6.01 8.485 5 10 C5.66 10.33 6.32 10.66 7 11 C5.68 11.33 4.36 11.66 3 12 C3 11.34 3 10.68 3 10 C2.01 10 1.02 10 0 10 C0 6.7 0 3.4 0 0 Z " fill="#CAE1DF" transform="translate(28,69)"/>
<path d="M0 0 C0.66 0.33 1.32 0.66 2 1 C-1.3 4.3 -4.6 7.6 -8 11 C-8.66 10.67 -9.32 10.34 -10 10 C-10 9.34 -10 8.68 -10 8 C-8.33333333 7 -6.66666667 6 -5 5 C-3.2958946 3.37163262 -1.61974559 1.71230248 0 0 Z " fill="#55AC31" transform="translate(58,96)"/>
<path d="M0 0 C1.21236328 0.04060547 1.21236328 0.04060547 2.44921875 0.08203125 C3.06410156 0.11683594 3.67898438 0.15164062 4.3125 0.1875 C4.3125 0.5175 4.3125 0.8475 4.3125 1.1875 C1.6725 1.1875 -0.9675 1.1875 -3.6875 1.1875 C-3.935 1.785625 -4.1825 2.38375 -4.4375 3 C-5.85120012 5.47397521 -7.33805383 6.62120255 -9.6875 8.1875 C-7.73954525 2.6433211 -6.20630826 -0.26983949 0 0 Z " fill="#C9E1EE" transform="translate(297.6875,83.8125)"/>
<path d="M0 0 C1.32 0.33 2.64 0.66 4 1 C1.69 3.31 -0.62 5.62 -3 8 C-3.33 7.01 -3.66 6.02 -4 5 C-2.0625 2.3125 -2.0625 2.3125 0 0 Z " fill="#2167B8" transform="translate(331,80)"/>
<path d="M0 0 C0.33 0.66 0.66 1.32 1 2 C-0.65 2 -2.3 2 -4 2 C-4 2.99 -4 3.98 -4 5 C-2.35 5 -0.7 5 1 5 C1 5.66 1 6.32 1 7 C-1.31 7 -3.62 7 -6 7 C-5.67 5.02 -5.34 3.04 -5 1 C-3.35 0.67 -1.7 0.34 0 0 Z " fill="#A4A4A4" transform="translate(226,143)"/>
<path d="M0 0 C4 2 4 2 5.25 4.625 C5.4975 5.40875 5.745 6.1925 6 7 C4.68 6.01 3.36 5.02 2 4 C1.67 5.98 1.34 7.96 1 10 C0.67 10 0.34 10 0 10 C0 6.7 0 3.4 0 0 Z " fill="#6D6D6D" transform="translate(293,139)"/>
<path d="M0 0 C0.66 0.33 1.32 0.66 2 1 C1.67 1.66 1.34 2.32 1 3 C2.32 3.66 3.64 4.32 5 5 C1.7 5 -1.6 5 -5 5 C-5 4.34 -5 3.68 -5 3 C-2.625 1.3125 -2.625 1.3125 0 0 Z " fill="#3768AB" transform="translate(67,65)"/>
<path d="M0 0 C2.31 0 4.62 0 7 0 C6.67 1.32 6.34 2.64 6 4 C3.03 3.505 3.03 3.505 0 3 C0 2.01 0 1.02 0 0 Z " fill="#F2F2F2" transform="translate(379,140)"/>
<path d="M0 0 C1.32 0.33 2.64 0.66 4 1 C2.35 2.65 0.7 4.3 -1 6 C-1.99 5.67 -2.98 5.34 -4 5 C-2.68 3.35 -1.36 1.7 0 0 Z " fill="#254997" transform="translate(59,116)"/>
<path d="M0 0 C0.66 0 1.32 0 2 0 C0.84414715 3.91211733 -0.35534962 6.8745041 -3 10 C-3 7.36 -3 4.72 -3 2 C-2.01 2.33 -1.02 2.66 0 3 C0 2.01 0 1.02 0 0 Z " fill="#90CA61" transform="translate(33,112)"/>
<path d="M0 0 C0.93045933 2.55144824 1.08564091 3.74006478 0.22265625 6.359375 C-0.16019531 7.14828125 -0.54304688 7.9371875 -0.9375 8.75 C-1.50791016 9.94882813 -1.50791016 9.94882813 -2.08984375 11.171875 C-2.39019531 11.77515625 -2.69054687 12.3784375 -3 13 C-3.93045933 10.44855176 -4.08564091 9.25993522 -3.22265625 6.640625 C-2.83980469 5.85171875 -2.45695312 5.0628125 -2.0625 4.25 C-1.68222656 3.45078125 -1.30195312 2.6515625 -0.91015625 1.828125 C-0.60980469 1.22484375 -0.30945313 0.6215625 0 0 Z " fill="#175DAD" transform="translate(103,101)"/>
<path d="M0 0 C0.33 0 0.66 0 1 0 C1.0825 1.0725 1.165 2.145 1.25 3.25 C2.05476902 7.2738451 2.87729874 8.48169253 6 11 C1.125 10.125 1.125 10.125 0 9 C-0.07179964 7.48071962 -0.08392007 5.95832518 -0.0625 4.4375 C-0.05347656 3.61121094 -0.04445312 2.78492188 -0.03515625 1.93359375 C-0.02355469 1.29550781 -0.01195312 0.65742188 0 0 Z " fill="#909091" transform="translate(158,139)"/>
<path d="M0 0 C2.475 0.495 2.475 0.495 5 1 C5.66 3.97 6.32 6.94 7 10 C4.60743494 8.80371747 4.20156622 7.87434735 2.9375 5.5625 C2.59589844 4.94503906 2.25429687 4.32757813 1.90234375 3.69140625 C1.25078447 2.47008518 0.61905648 1.23811297 0 0 Z " fill="#305EA7" transform="translate(82,74)"/>
<path d="M0 0 C0.6875 1.75 0.6875 1.75 1 4 C-0.4375 6.25 -0.4375 6.25 -2 8 C-3.32 7.67 -4.64 7.34 -6 7 C-6 6.34 -6 5.68 -6 5 C-4.35 5 -2.7 5 -1 5 C-0.67 3.35 -0.34 1.7 0 0 Z " fill="#868686" transform="translate(201,142)"/>
<path d="M0 0 C0.99 0 1.98 0 3 0 C2.25 4.75 2.25 4.75 0 7 C-0.66 6.67 -1.32 6.34 -2 6 C-1.34 4.02 -0.68 2.04 0 0 Z " fill="#EFFAE3" transform="translate(35,112)"/>
<path d="M0 0 C0.66 0.99 1.32 1.98 2 3 C0.68 3.99 -0.64 4.98 -2 6 C-3.32 5.34 -4.64 4.68 -6 4 C-4.02 2.68 -2.04 1.36 0 0 Z " fill="#C7DFEC" transform="translate(79,55)"/>
<path d="M0 0 C1.98 0 3.96 0 6 0 C5.67 1.32 5.34 2.64 5 4 C3.35 3.67 1.7 3.34 0 3 C0 2.01 0 1.02 0 0 Z " fill="#F9F9F9" transform="translate(393,140)"/>
<path d="M0 0 C1.32 0 2.64 0 4 0 C3.49396008 2.16874252 3.00016187 3.99967627 2 6 C1.34 6 0.68 6 0 6 C0 4.02 0 2.04 0 0 Z " fill="#E3E3E3" transform="translate(285,140)"/>
<path d="M0 0 C0.66 0.33 1.32 0.66 2 1 C2.25 3.25 2.25 3.25 2 6 C0 8.3125 0 8.3125 -2 10 C-2.66 9.67 -3.32 9.34 -4 9 C-2.95833333 7.2421875 -1.91666667 5.484375 -0.875 3.7265625 C0.15068348 2.02527333 0.15068348 2.02527333 0 0 Z " fill="#A2D97A" transform="translate(381,94)"/>
<path d="M0 0 C2 1.5625 2 1.5625 4 4 C4.25 7.75 4.25 7.75 4 11 C1.54176828 7.31265242 0.98757384 4.30300029 0 0 Z " fill="#0542A0" transform="translate(87,76)"/>
<path d="M0 0 C1.32 0.66 2.64 1.32 4 2 C3.67 2.99 3.34 3.98 3 5 C1.68 5 0.36 5 -1 5 C-0.67 3.35 -0.34 1.7 0 0 Z " fill="#3B981E" transform="translate(77,89)"/>
<path d="M0 0 C0.33 0.99 0.66 1.98 1 3 C1.99 3.33 2.98 3.66 4 4 C0.98968256 4.93423645 0.13349732 5.04449911 -3 4 C-2.67 3.01 -2.34 2.02 -2 1 C-1.34 0.67 -0.68 0.34 0 0 Z " fill="#3F87C8" transform="translate(16,62)"/>
<path d="M0 0 C0 2 0 2 -2 4.125 C-2.66 4.74375 -3.32 5.3625 -4 6 C-4.99 5.67 -5.98 5.34 -7 5 C-7 4.34 -7 3.68 -7 3 C-2.61538462 0 -2.61538462 0 0 0 Z " fill="#216ABC" transform="translate(80,59)"/>
</svg>